{"title":"The Scientist 2010 DVDRip Xvid LKRG","uid":6271877,"size":1085263319,"categoryP":"video","categoryS":"movies","magnet":"?xt=urn:btih:00f0395d02cfecf9855ac1fd5aa0e8997260217f&amp;dn=The+Scientist+2010+DVDRip+Xvid+LKRG&amp;tr=udp%3A%2F%2Ftracker.openbittorrent.com%3A80&amp;tr=udp%3A%2F%2Fopen.demonii.com%3A1337&amp;tr=udp%3A%2F%2Ftracker.coppersurfer.tk%3A6969&amp;tr=udp%3A%2F%2Fexodus.desync.com%3A6969","seeders":1,"leechers":0,"uploader":"hiest","files":-1,"time":1301132021,"description":"##       ##    ## ########   ######   \n##       ##   ##  ##     ## ##    ##  \n##       ##  ##   ##     ## ##        \n##       #####    ########  ##   #### \n##       ##  ##   ##   ##   ##    ##  \n##       ##   ##  ##    ##  ##    ##  \n######## ##    ## ##     ##  ######   \n\n\nTitle: The Scientist 2010 DVDRip Xvid LKRG\nFormat;AVI\nFile Size:1.01gb\n\nVideo\nID : 0\nFormat : MPEG-4 Visual\nFormat profile : Advanced Simple@L5\nFormat settings, BVOP : Yes\nFormat settings, QPel : No\nFormat settings, GMC : No warppoints\nFormat settings, Matrix : Default (H.263)\nCodec ID : XVID\nCodec ID/Hint : XviD\nDuration : 1h 27mn\nBit rate : 1 255 Kbps\nWidth : 640 pixels\nHeight : 368 pixels\nDisplay aspect ratio : 16:9\nFrame rate : 23.976 fps\nColor space : YUV\nChroma subsampling : 4:2:0\nBit depth : 8 bits\nScan type : Progressive\nBits/(Pixel*Frame) : 0.222\nStream size : 787 MiB (76%)\nWriting library : XviD 1.2.1 (UTC 2008-12-04)\n\nAudio\nID : 1\nFormat : AC-3\nFormat/Info : Audio Coding 3\nMode extension : CM (complete main)\nCodec ID : 2000\nDuration : 1h 27mn\nBit rate mode : Constant\nBit rate : 384 Kbps\nChannel(s) : 6 channels\nChannel positions : Front: L C R, Side: L R, LFE\nSampling rate : 48.0 KHz\nBit depth : 16 bits\nStream size : 241 MiB (23%)\nAlignment : Aligned on interleaves\nInterleave, duration : 32 ms (0.77 video frame)\n\n\nDuration:1:09\nRelease Date:2011\nLanguage:English\n\nIMDB: &lt;a href=&quot;\nhttp://www.imdb.com/title/tt1311087/&quot; rel=&quot;nofollow&quot; target=&quot;_NEW&quot;&gt;\nhttp://www.imdb.com/title/tt1311087/&lt;/a&gt;\n\nPlot:\n\nThe Scientist follows a brilliant physicist, Dr. Marcus Ryan (Bill Sage), who anguishes over the tragic death of his wife and daughter while secretly constructing a mysterious energy generator in his basement. The multi-dimensional energy unleashed by the machine triggers a series of events that propels Ryan toward a higher level of consciousness.\n\n\n\n\n\n\n\n================================== &lt;a href=&quot;\nhttp://thepiratebay.se/user/hiest&quot; rel=&quot;nofollow&quot; target=&quot;_NEW&quot;&gt;\nhttp://thepiratebay.se/user/hiest&lt;/a&gt;\n==================================\n\n\n\n\n\n\n\nScreen Shots:\n &lt;a href=&quot;\nhttp://shotpix.com/images/81410215263512072711.png&quot; rel=&quot;nofollow&quot; target=&quot;_NEW&quot;&gt;\nhttp://shotpix.com/images/81410215263512072711.png&lt;/a&gt;\n &lt;a href=&quot;\nhttp://shotpix.com/images/89093145128132536437.png&quot; rel=&quot;nofollow&quot; target=&quot;_NEW&quot;&gt;\nhttp://shotpix.com/images/89093145128132536437.png&lt;/a&gt;\n &lt;a href=&quot;\nhttp://shotpix.com/images/87953779079073621672.png&quot; rel=&quot;nofollow&quot; target=&quot;_NEW&quot;&gt;\nhttp://shotpix.com/images/87953779079073621672.png&lt;/a&gt;\n &lt;a href=&quot;\nhttp://shotpix.com/images/73878833341096454151.png&quot; rel=&quot;nofollow&quot; target=&quot;_NEW&quot;&gt;\nhttp://shotpix.com/images/73878833341096454151.png&lt;/a&gt;\n &lt;a href=&quot;\nhttp://shotpix.com/images/38114486800888427876.png&quot; rel=&quot;nofollow&quot; target=&quot;_NEW&quot;&gt;\nhttp://shotpix.com/images/38114486800888427876.png&lt;/a&gt;\n &lt;a href=&quot;\nhttp://shotpix.com/images/71260348194138851740.png&quot; rel=&quot;nofollow&quot; target=&quot;_NEW&quot;&gt;\nhttp://shotpix.com/images/71260348194138851740.png&lt;/a&gt;\n\n\n##       ##    ## ########   ######   \n##       ##   ##  ##     ## ##    ##  \n##       ##  ##   ##     ## ##        \n##       #####    ########  ##   #### \n##       ##  ##   ##   ##   ##    ##  \n##       ##   ##  ##    ##  ##    ##  \n######## ##    ## ##     ##  ######   ","torrent":{"xt":"urn:btih:00f0395d02cfecf9855ac1fd5aa0e8997260217f","amp;dn":"The+Scientist+2010+DVDRip+Xvid+LKRG","amp;tr":["udp%3A%2F%2Ftracker.openbittorrent.com%3A80","udp%3A%2F%2Fopen.demonii.com%3A1337","udp%3A%2F%2Ftracker.coppersurfer.tk%3A6969","udp%3A%2F%2Fexodus.desync.com%3A6969"],"infoHash":"00f0395d02cfecf9855ac1fd5aa0e8997260217f","infoHashBuffer":{"type":"Buffer","data":[0,240,57,93,2,207,236,249,133,90,193,253,90,160,232,153,114,96,33,127]},"announce":[],"urlList":[]}}